{
  "accessors": [
    {
      "bufferView": 2,
      "componentType": 5126,
      "count": 65532,
      "max": [
        5.194119930267334,
        0.045168790966272354,
        11.986191749572754
      ],
      "min": [
        -5.13079833984375,
        -5.5054388046264648,
        -9.6705722808837891
      ],
      "type": "VEC3"
    },
    {
      "bufferView": 2,
      "byteOffset": 786384,
      "componentType": 5126,
      "count": 65532,
      "max": [
        0.99998998641967773,
        0.99991953372955322,
        0.99999117851257324
      ],
      "min": [
        -0.99984216690063477,
        -0.99998319149017334,
        -0.99992138147354126
      ],
      "type": "VEC3"
    },
    {
      "bufferView": 1,
      "componentType": 5126,
      "count": 65532,
      "max": [
        0.99975597858428955,
        0.89331001043319702
      ],
      "min": [
        0.00024399999529123306,
        0.00024399999529123306
      ],
      "type": "VEC2"
    },
    {
      "bufferView": 0,
      "componentType": 5125,
      "count": 220563,
      "max": [
        65531
      ],
      "min": [
        0
      ],
      "type": "SCALAR"
    },
    {
      "bufferView": 2,
      "byteOffset": 1572768,
      "componentType": 5126,
      "count": 42997,
      "max": [
        5.194119930267334,
        0.045168790966272354,
        11.986191749572754
      ],
      "min": [
        -5.13079833984375,
        -5.5054388046264648,
        -9.6623821258544922
      ],
      "type": "VEC3"
    },
    {
      "bufferView": 2,
      "byteOffset": 2088732,
      "componentType": 5126,
      "count": 42997,
      "max": [
        0.99998998641967773,
        0.9998127818107605,
        0.99997067451477051
      ],
      "min": [
        -0.99982172250747681,
        -0.99987179040908813,
        -0.99973601102828979
      ],
      "type": "VEC3"
    },
    {
      "bufferView": 1,
      "byteOffset": 524256,
      "componentType": 5126,
      "count": 42997,
      "max": [
        0.99975597858428955,
        0.89428699016571045
      ],
      "min": [
        0.00024399999529123306,
        0.00024399999529123306
      ],
      "type": "VEC2"
    },
    {
      "bufferView": 0,
      "byteOffset": 882252,
      "componentType": 5125,
      "count": 64041,
      "max": [
        42996
      ],
      "min": [
        0
      ],
      "type": "SCALAR"
    }
  ],
  "asset": {
    "extras": {
      "author": "Fundacja Collect (https://sketchfab.com/wirtualnemuzeawroclawia)",
      "license": "CC-BY-4.0 (http://creativecommons.org/licenses/by/4.0/)",
      "source": "https://sketchfab.com/3d-models/uskowiec-ca5eb180750e4f18a67fd27b949e5735",
      "title": "Łuskowiec"
    },
    "generator": "Sketchfab-9.25.1",
    "version": "2.0"
  },
  "bufferViews": [
    {
      "buffer": 0,
      "byteLength": 1138416,
      "byteOffset": 0,
      "name": "floatBufferViews",
      "target": 34963
    },
    {
      "buffer": 0,
      "byteLength": 868232,
      "byteOffset": 1138416,
      "byteStride": 8,
      "name": "floatBufferViews",
      "target": 34962
    },
    {
      "buffer": 0,
      "byteLength": 2604696,
      "byteOffset": 2006648,
      "byteStride": 12,
      "name": "floatBufferViews",
      "target": 34962
    }
  ],
  "buffers": [
    {
      "byteLength": 4611344,
      "uri": "scene.bin"
    }
  ],
  "images": [
    {
      "uri": "textures/HIGH_Material_u1_v1_baseColor.jpeg"
    }
  ],
  "materials": [
    {
      "doubleSided": true,
      "name": "HIGH_Material_u1_v1",
      "pbrMetallicRoughness": {
        "baseColorFactor": [
          1,
          1,
          1,
          1
        ],
        "baseColorTexture": {
          "index": 0,
          "texCoord": 0
        },
        "metallicFactor": 0,
        "roughnessFactor": 0.91373602320194081
      }
    }
  ],
  "meshes": [
    {
      "primitives": [
        {
          "attributes": {
            "NORMAL": 1,
            "POSITION": 0,
            "TEXCOORD_0": 2
          },
          "indices": 3,
          "material": 0,
          "mode": 4
        }
      ]
    },
    {
      "primitives": [
        {
          "attributes": {
            "NORMAL": 5,
            "POSITION": 4,
            "TEXCOORD_0": 6
          },
          "indices": 7,
          "material": 0,
          "mode": 4
        }
      ]
    }
  ],
  "nodes": [
    {
      "children": [
        1
      ],
      "name": "RootNode (gltf orientation matrix)",
      "rotation": [
        -0.70710678118654746,
        -0,
        -0,
        0.70710678118654757
      ]
    },
    {
      "children": [
        2
      ],
      "matrix": [
        0.074001461267471313,
        0.12442591786384583,
        -0.98946547508239746,
        0,
        -0.87679785490036011,
        0.48083204030990601,
        -0.0051101814024150372,
        0,
        0.47513088583946228,
        0.86793935298919678,
        0.14467865228652954,
        0,
        -2.9145729541778564,
        -2.4262402057647705,
        1.0076628923416138,
        1
      ],
      "name": "RootNode (model correction matrix)"
    },
    {
      "children": [
        3,
        4
      ],
      "name": "HIGH.obj.cleaner.materialmerger.gles"
    },
    {
      "mesh": 0,
      "name": ""
    },
    {
      "mesh": 1,
      "name": ""
    }
  ],
  "samplers": [
    {
      "magFilter": 9729,
      "minFilter": 9987,
      "wrapS": 10497,
      "wrapT": 10497
    }
  ],
  "scene": 0,
  "scenes": [
    {
      "name": "OSG_Scene",
      "nodes": [
        0
      ]
    }
  ],
  "textures": [
    {
      "sampler": 0,
      "source": 0
    }
  ]
}

