{
  "accessors": [
    {
      "bufferView": 2,
      "componentType": 5126,
      "count": 1484,
      "max": [
        7.3750381469726562,
        -0.0018050000071525574,
        0.017311999574303627
      ],
      "min": [
        -8.7307538986206055,
        -4.8381271362304688,
        -0.15002800524234772
      ],
      "type": "VEC3"
    },
    {
      "bufferView": 2,
      "byteOffset": 17808,
      "componentType": 5126,
      "count": 1484,
      "max": [
        0.99999678134918213,
        0.99999362230300903,
        0.99787145853042603
      ],
      "min": [
        -0.99997252225875854,
        -0.99999988079071045,
        -0.99999922513961792
      ],
      "type": "VEC3"
    },
    {
      "bufferView": 1,
      "componentType": 5126,
      "count": 1484,
      "max": [
        0.42742499709129333,
        0.99951702356338501
      ],
      "min": [
        0.00016199999663513154,
        0.00047599998652003706
      ],
      "type": "VEC2"
    },
    {
      "bufferView": 0,
      "componentType": 5125,
      "count": 6000,
      "max": [
        1483
      ],
      "min": [
        0
      ],
      "type": "SCALAR"
    }
  ],
  "asset": {
    "extras": {
      "author": "David Ferguson (https://sketchfab.com/davidvferguson)",
      "license": "CC-BY-4.0 (http://creativecommons.org/licenses/by/4.0/)",
      "source": "https://sketchfab.com/3d-models/stanley-street-wall-73ceb15fb8de420d977bb1772621a2ee",
      "title": "Stanley Street Wall"
    },
    "generator": "Sketchfab-9.5.0",
    "version": "2.0"
  },
  "bufferViews": [
    {
      "buffer": 0,
      "byteLength": 24000,
      "byteOffset": 0,
      "name": "floatBufferViews",
      "target": 34963
    },
    {
      "buffer": 0,
      "byteLength": 11872,
      "byteOffset": 24000,
      "byteStride": 8,
      "name": "floatBufferViews",
      "target": 34962
    },
    {
      "buffer": 0,
      "byteLength": 35616,
      "byteOffset": 35872,
      "byteStride": 12,
      "name": "floatBufferViews",
      "target": 34962
    }
  ],
  "buffers": [
    {
      "byteLength": 71488,
      "uri": "scene.bin"
    }
  ],
  "images": [
    {
      "uri": "textures/stan-st-wall-lo_baseColor.jpeg"
    }
  ],
  "materials": [
    {
      "doubleSided": true,
      "name": "stan-st-wall-lo",
      "pbrMetallicRoughness": {
        "baseColorFactor": [
          1,
          1,
          1,
          1
        ],
        "baseColorTexture": {
          "index": 0,
          "texCoord": 0
        },
        "metallicFactor": 0,
        "roughnessFactor": 1
      }
    }
  ],
  "meshes": [
    {
      "primitives": [
        {
          "attributes": {
            "NORMAL": 1,
            "POSITION": 0,
            "TEXCOORD_0": 2
          },
          "indices": 3,
          "material": 0,
          "mode": 4
        }
      ]
    }
  ],
  "nodes": [
    {
      "children": [
        1
      ],
      "name": "RootNode (gltf orientation matrix)",
      "rotation": [
        -0.70710678118654746,
        -0,
        -0,
        0.70710678118654757
      ]
    },
    {
      "children": [
        2
      ],
      "matrix": [
        1,
        0,
        0,
        0,
        0,
        -0.017512308433651924,
        -0.99984663724899292,
        0,
        0,
        0.99984663724899292,
        -0.017512308433651924,
        0,
        0,
        -2.3960061073303223,
        -2.4871234893798828,
        1
      ],
      "name": "RootNode (model correction matrix)"
    },
    {
      "children": [
        3
      ],
      "name": "stan-st-wall-lo.obj.cleaner.materialmerger.gles"
    },
    {
      "mesh": 0,
      "name": ""
    }
  ],
  "samplers": [
    {
      "magFilter": 9729,
      "minFilter": 9987,
      "wrapS": 10497,
      "wrapT": 10497
    }
  ],
  "scene": 0,
  "scenes": [
    {
      "name": "OSG_Scene",
      "nodes": [
        0
      ]
    }
  ],
  "textures": [
    {
      "sampler": 0,
      "source": 0
    }
  ]
}

